<svg width="166" height="58" viewBox="0 0 166 58" fill="none" xmlns="http://www.w3.org/2000/svg">
<path fill-rule="evenodd" clip-rule="evenodd" d="M49.3139 19.3239C51.2302 18.1823 53.6681 19.5528 53.6681 21.7717V43.6603C53.6681 44.6631 53.1383 45.5923 52.2723 46.1082L34.0635 56.956C32.1472 58.0976 29.7092 56.727 29.7092 54.5081V32.6195C29.7092 31.6168 30.2391 30.6876 31.105 30.1717L49.3139 19.3239ZM0 21.8727C0 19.6537 2.43798 18.2832 4.35428 19.4248L6.69937 20.8219L0 27.4737V21.8727ZM0 36.898V39.3215L14.1572 25.2648L12.6316 24.356L0 36.898ZM2.12019 46.6406L3.61551 47.5315L21.5847 29.6897L20.0894 28.7989L2.12019 46.6406ZM9.54776 51.0656L19.6047 57.0569C20.2678 57.452 20.9934 57.5462 21.6589 57.4085V45.0863H23.959V36.7566L9.54776 51.0656ZM42.9439 31.011C42.2362 30.6523 41.4531 30.4649 40.6586 30.4642C39.9312 30.4649 39.2126 30.6222 38.5523 30.9252C37.8919 31.2283 37.3055 31.6699 36.8335 32.2197C36.3614 32.7695 36.0149 33.4144 35.8179 34.1099C35.6208 34.8055 35.5778 35.5352 35.6918 36.2489C35.8059 36.9626 36.0743 37.6432 36.4785 38.244C36.8828 38.8447 37.4133 39.3513 38.0335 39.7288C38.6537 40.1063 39.349 40.3458 40.0713 40.4308C40.7937 40.5158 41.526 40.4442 42.2178 40.2211L42.8194 40.8193C42.8662 40.8657 42.9217 40.9025 42.9828 40.9276C43.0439 40.9527 43.1094 40.9656 43.1755 40.9656H44.1823V41.9657C44.1823 42.0983 44.2353 42.2255 44.3297 42.3193C44.4241 42.4131 44.5522 42.4658 44.6857 42.4658H45.6924V43.4659C45.6924 43.5985 45.7455 43.7257 45.8399 43.8195C45.9343 43.9133 46.0623 43.966 46.1958 43.966H48.7127C48.8462 43.966 48.9742 43.9133 49.0686 43.8195C49.163 43.7257 49.2161 43.5985 49.2161 43.4659V40.9656C49.2161 40.8999 49.2032 40.8348 49.1779 40.7741C49.1526 40.7134 49.1156 40.6582 49.0688 40.6118L45.4464 37.0138C45.6916 36.2631 45.7546 35.4653 45.6302 34.6858C45.5058 33.9062 45.1976 33.167 44.7308 32.5283C44.2639 31.8897 43.6516 31.3697 42.9439 31.011ZM39.9595 35.0463C39.7939 35.1562 39.5993 35.2148 39.4002 35.2148C39.1331 35.2148 38.8771 35.1095 38.6883 34.9219C38.4995 34.7343 38.3934 34.48 38.3934 34.2147C38.3934 34.0169 38.4524 33.8235 38.5631 33.6591C38.6737 33.4946 38.8309 33.3664 39.0149 33.2907C39.1988 33.215 39.4013 33.1952 39.5966 33.2338C39.7919 33.2724 39.9712 33.3676 40.112 33.5075C40.2528 33.6474 40.3487 33.8256 40.3876 34.0196C40.4264 34.2136 40.4065 34.4147 40.3303 34.5974C40.2541 34.7802 40.125 34.9364 39.9595 35.0463Z" fill="white"/>
<path d="M0 21.8274C0 19.5982 2.43343 18.2213 4.34616 19.3682L6.68688 20.7717L0 27.4544V21.8274Z" fill="#F9C204"/>
<path d="M0 36.9223V39.357L14.1308 25.2352L12.6081 24.3222L0 36.9223Z" fill="#F9C204"/>
<path d="M3.60877 47.605L2.11624 46.7101L20.0519 28.7857L21.5445 29.6806L3.60877 47.605Z" fill="#F9C204"/>
<path d="M9.52996 51.1555L19.5681 57.1746C20.23 57.5714 20.9543 57.6661 21.6185 57.5278V45.1485H23.9143V36.7802L9.52996 51.1555Z" fill="#F9C204"/>
<path fill-rule="evenodd" clip-rule="evenodd" d="M6.82168 11.3889C4.95528 12.5014 4.95527 15.1885 6.82168 16.301L25.2444 27.2818C26.1574 27.826 27.2981 27.826 28.2112 27.2818L46.6339 16.301C48.5003 15.1885 48.5003 12.5014 46.6339 11.3889L28.2112 0.408168C27.2981 -0.136056 26.1574 -0.136056 25.2444 0.408168L6.82168 11.3889ZM23.9194 5.42681C23.8435 5.47352 23.8056 5.49688 23.7707 5.51143C23.5788 5.59152 23.3568 5.53974 23.2208 5.38316C23.1961 5.35471 23.1726 5.31702 23.1255 5.24163C23.0785 5.16625 23.055 5.12853 23.0403 5.0939C22.9597 4.90323 23.0118 4.68267 23.1695 4.54758C23.1981 4.52303 23.236 4.49968 23.3119 4.45296L27.7233 1.7372C27.7992 1.6905 27.8371 1.66712 27.872 1.65257C27.9956 1.601 28.1316 1.6041 28.2491 1.65464C28.2593 1.65817 28.2694 1.66206 28.2795 1.66632C28.3142 1.68107 28.352 1.70466 28.4277 1.75182L32.8228 4.49334L32.8229 4.4934C32.8985 4.54051 32.9363 4.5641 32.9647 4.58879C33.1216 4.72481 33.1724 4.94567 33.0906 5.13586C33.0758 5.17041 33.052 5.20796 33.0046 5.28307L33.0045 5.28319C32.9571 5.35819 32.9333 5.39578 32.9085 5.42406C32.7715 5.57984 32.5492 5.63033 32.3578 5.54911C32.323 5.53435 32.2852 5.51077 32.2096 5.46361L28.062 2.87653L23.9194 5.42681ZM9.39265 13.1317C9.27974 13.2285 9.22096 13.3691 9.22634 13.5112C9.18634 13.6809 9.2427 13.8619 9.37824 13.9794C9.40673 14.0042 9.44454 14.0277 9.52015 14.0749L13.9153 16.8164C13.9909 16.8636 14.0287 16.8872 14.0635 16.9019C14.255 16.9831 14.4773 16.9327 14.6142 16.7769C14.6391 16.7486 14.6628 16.711 14.7103 16.6359C14.7578 16.5608 14.7815 16.5232 14.7964 16.4887C14.8781 16.2985 14.8273 16.0776 14.6705 15.9416C14.642 15.9169 14.6042 15.8933 14.5286 15.8462L10.8692 13.5636L14.554 11.2952C14.6299 11.2484 14.6678 11.2251 14.6965 11.2005C14.8541 11.0654 14.9062 10.8449 14.8256 10.6542C14.8109 10.6196 14.7874 10.5819 14.7404 10.5065C14.6934 10.4311 14.6698 10.3934 14.6451 10.3649C14.5091 10.2084 14.2871 10.1566 14.0952 10.2367C14.0603 10.2512 14.0224 10.2746 13.9465 10.3213L9.53512 13.0371C9.45924 13.0838 9.42129 13.1071 9.39265 13.1317ZM23.9194 20.5234L28.062 23.0737L32.2096 20.4866C32.2852 20.4394 32.323 20.4158 32.3578 20.4011C32.5492 20.3199 32.7715 20.3703 32.9085 20.5261C32.9333 20.5544 32.9571 20.592 33.0045 20.6671L33.0046 20.6671C33.052 20.7422 33.0758 20.7798 33.0906 20.8143C33.1724 21.0045 33.1216 21.2254 32.9647 21.3614C32.9363 21.3861 32.8984 21.4097 32.8228 21.4569L28.4277 24.1984C28.3521 24.2455 28.3142 24.2691 28.2795 24.2839C28.2694 24.2881 28.2593 24.292 28.2491 24.2956C28.1316 24.3461 27.9956 24.3492 27.872 24.2976C27.8372 24.2831 27.7993 24.2597 27.7235 24.2131L27.7234 24.2131L27.7233 24.213L23.3119 21.4972C23.236 21.4505 23.1981 21.4272 23.1695 21.4026C23.0118 21.2675 22.9597 21.047 23.0403 20.8563C23.055 20.8217 23.0785 20.784 23.1255 20.7086L23.1255 20.7086C23.1726 20.6332 23.1961 20.5955 23.2208 20.567C23.3568 20.4104 23.5788 20.3587 23.7707 20.4388C23.8056 20.4533 23.8436 20.4767 23.9194 20.5234ZM44.6823 14.1238C44.7949 14.0269 44.8535 13.8864 44.848 13.7445C44.888 13.5745 44.8313 13.3934 44.6955 13.276C44.667 13.2513 44.6291 13.2278 44.5534 13.1807L40.1539 10.4461C40.0782 10.399 40.0404 10.3755 40.0056 10.3608C39.814 10.2799 39.5918 10.3307 39.4551 10.4867C39.4303 10.515 39.4066 10.5526 39.3593 10.6278C39.3119 10.703 39.2882 10.7406 39.2734 10.7752C39.1919 10.9655 39.2431 11.1863 39.4001 11.3221C39.4287 11.3467 39.4665 11.3703 39.5422 11.4173L43.2051 13.6941L39.5239 15.9683C39.448 16.0152 39.4101 16.0386 39.3815 16.0632C39.2241 16.1985 39.1723 16.4191 39.2533 16.6097C39.268 16.6443 39.2915 16.6819 39.3387 16.7572L39.3387 16.7573C39.3858 16.8326 39.4094 16.8703 39.4342 16.8987C39.5704 17.055 39.7925 17.1065 39.9843 17.0261C40.0192 17.0115 40.0571 16.9881 40.1329 16.9412L44.54 14.2186C44.6158 14.1718 44.6537 14.1483 44.6823 14.1238ZM19.6627 15.4331C19.5746 15.3853 19.5306 15.3614 19.5023 15.3402C19.2583 15.1571 19.2462 14.7972 19.4774 14.5984C19.5041 14.5754 19.5465 14.5486 19.6312 14.4951C19.664 14.4743 19.6804 14.4639 19.6964 14.4554C19.828 14.3855 19.9849 14.3803 20.1209 14.4413C20.1375 14.4488 20.1545 14.458 20.1887 14.4765L25.3357 17.2691C25.4239 17.3169 25.468 17.3409 25.4962 17.362C25.7402 17.5451 25.7523 17.905 25.5212 18.1038C25.4944 18.1268 25.452 18.1536 25.3673 18.2072L25.3672 18.2072C25.3344 18.228 25.318 18.2384 25.302 18.2469C25.1704 18.3168 25.0135 18.322 24.8775 18.2609C24.861 18.2535 24.8439 18.2443 24.8098 18.2257L19.6627 15.4331ZM21.8731 14.052L27.0201 16.8446C27.0542 16.8631 27.0713 16.8724 27.0878 16.8798C27.2238 16.9408 27.3807 16.9356 27.5123 16.8657C27.5283 16.8572 27.5447 16.8469 27.5774 16.8262L27.5775 16.8261C27.6623 16.7725 27.7047 16.7457 27.7315 16.7227C27.9626 16.5239 27.9505 16.164 27.7065 15.9809C27.6783 15.9597 27.6342 15.9358 27.546 15.888L22.399 13.0954C22.3648 13.0769 22.3478 13.0676 22.3312 13.0602C22.1952 12.9991 22.0383 13.0044 21.9067 13.0743C21.8907 13.0828 21.8743 13.0932 21.8415 13.1139C21.7568 13.1675 21.7144 13.1943 21.6877 13.2173C21.4565 13.4161 21.4686 13.776 21.7127 13.9591C21.7409 13.9802 21.7849 14.0042 21.8731 14.052ZM23.9874 12.7154C23.8993 12.6675 23.8552 12.6436 23.827 12.6225C23.583 12.4394 23.5709 12.0795 23.802 11.8806C23.8288 11.8577 23.8711 11.8309 23.9558 11.7773L23.9559 11.7773C23.9887 11.7566 24.0051 11.7462 24.0211 11.7377C24.1527 11.6678 24.3095 11.6625 24.4456 11.7236C24.4621 11.731 24.4792 11.7403 24.5133 11.7588L29.6603 14.5513C29.7485 14.5992 29.7926 14.6231 29.8209 14.6443C30.0648 14.8274 30.0769 15.1873 29.8458 15.3861C29.8191 15.4091 29.7767 15.4359 29.6919 15.4895C29.6591 15.5102 29.6426 15.5206 29.6266 15.5291C29.495 15.599 29.3382 15.6042 29.2022 15.5432C29.1856 15.5358 29.1686 15.5265 29.1345 15.508L23.9874 12.7154ZM29.8499 9.08737L34.9969 11.88L34.997 11.88C35.031 11.8985 35.0481 11.9078 35.0646 11.9152C35.2006 11.9762 35.3575 11.971 35.4891 11.9011C35.5051 11.8926 35.5215 11.8823 35.5542 11.8616L35.5543 11.8615L35.5544 11.8615L35.5545 11.8614C35.6392 11.8079 35.6815 11.7811 35.7083 11.7581C35.9394 11.5593 35.9273 11.1994 35.6833 11.0163C35.6551 10.9951 35.611 10.9712 35.5228 10.9234L30.3758 8.1308C30.3417 8.11229 30.3246 8.10303 30.308 8.0956C30.172 8.03455 30.0151 8.03976 29.8835 8.1097C29.8675 8.11821 29.8511 8.12858 29.8183 8.14932C29.7336 8.20288 29.6912 8.22966 29.6645 8.25265C29.4333 8.45149 29.4454 8.81141 29.6894 8.99447C29.7177 9.01564 29.7617 9.03956 29.8499 9.08737ZM26.449 11.6121C26.0628 11.4026 25.8697 11.2979 25.803 11.1554C25.7474 11.0365 25.7434 10.9 25.7921 10.7781C25.8504 10.6321 26.0372 10.5165 26.4106 10.2853L27.8285 9.40757C27.9715 9.31904 28.043 9.27478 28.12 9.25679C28.1853 9.24153 28.253 9.24002 28.319 9.25235C28.3967 9.26689 28.4701 9.30792 28.617 9.38998L33.2338 11.9698C33.6115 12.1809 33.8004 12.2864 33.8654 12.4282C33.9197 12.5467 33.9229 12.6821 33.8744 12.803C33.8162 12.9477 33.6327 13.0621 33.2655 13.2908L31.9172 14.1308C31.7759 14.2188 31.7053 14.2628 31.6291 14.2811C31.5645 14.2966 31.4974 14.2986 31.432 14.287C31.3548 14.2733 31.2817 14.2336 31.1353 14.1543L26.449 11.6121Z" fill="white"/>
<path d="M65.3274 37.2576C65.3274 37.625 65.3935 37.9703 65.5257 38.2936C65.658 38.6022 65.8343 38.874 66.0547 39.1091C66.2898 39.3442 66.5617 39.5279 66.8703 39.6601C67.1935 39.7924 67.5389 39.8585 67.9062 39.8585C68.2589 39.8585 68.5895 39.7924 68.8981 39.6601C69.2214 39.5279 69.4932 39.3442 69.7136 39.1091C69.9487 38.874 70.1324 38.6022 70.2647 38.2936C70.4116 37.985 70.4851 37.6544 70.4851 37.3017C70.4851 36.949 70.4116 36.6184 70.2647 36.3098C70.1324 35.9866 69.9487 35.7074 69.7136 35.4723C69.4932 35.2371 69.2214 35.0535 68.8981 34.9212C68.5895 34.789 68.2589 34.7228 67.9062 34.7228C67.5389 34.7228 67.1935 34.789 66.8703 34.9212C66.5617 35.0535 66.2898 35.2371 66.0547 35.4723C65.8343 35.7074 65.658 35.9792 65.5257 36.2878C65.3935 36.5817 65.3274 36.905 65.3274 37.2576ZM70.3528 31.637H74.3644V42.9443H70.3528V41.688C69.5006 42.7607 68.3471 43.297 66.8923 43.297C66.0694 43.297 65.3127 43.1501 64.622 42.8562C63.9314 42.5476 63.3289 42.1215 62.8146 41.5778C62.3003 41.0341 61.8962 40.3949 61.6023 39.6601C61.3232 38.9254 61.1836 38.1246 61.1836 37.2576C61.1836 36.4494 61.3232 35.6853 61.6023 34.9653C61.8815 34.2306 62.2709 33.5914 62.7705 33.0477C63.2702 32.504 63.8653 32.0779 64.5559 31.7693C65.2465 31.446 66.0107 31.2844 66.8482 31.2844C68.2589 31.2844 69.4271 31.7766 70.3528 32.7611V31.637ZM84.5734 34.5465C83.8387 34.1645 83.1187 33.9734 82.4133 33.9734C82.046 33.9734 81.7447 34.0469 81.5096 34.1938C81.2892 34.3408 81.179 34.5392 81.179 34.789C81.179 34.9212 81.1937 35.0314 81.2231 35.1196C81.2672 35.1931 81.348 35.2665 81.4656 35.34C81.5978 35.4135 81.7815 35.4796 82.0166 35.5384C82.2664 35.5972 82.5897 35.6706 82.9864 35.7588C84.0885 35.9792 84.9114 36.376 85.4551 36.949C85.9988 37.5074 86.2706 38.2274 86.2706 39.1091C86.2706 39.7704 86.1384 40.3655 85.8739 40.8945C85.6094 41.4235 85.242 41.8716 84.7718 42.239C84.3016 42.5917 83.7358 42.8635 83.0746 43.0545C82.4133 43.2603 81.686 43.3631 80.8925 43.3631C79.3643 43.3631 77.8581 42.9296 76.374 42.0627L77.8287 39.2414C78.9455 40.0055 80.0035 40.3875 81.0027 40.3875C81.37 40.3875 81.6713 40.3067 81.9064 40.1451C82.1415 39.9834 82.2591 39.7777 82.2591 39.5279C82.2591 39.381 82.237 39.2634 82.1929 39.1752C82.1635 39.0724 82.0901 38.9842 81.9725 38.9107C81.855 38.8226 81.6786 38.7491 81.4435 38.6903C81.2231 38.6168 80.9292 38.5434 80.5619 38.4699C79.3275 38.2201 78.4606 37.8527 77.961 37.3678C77.476 36.8682 77.2336 36.1849 77.2336 35.318C77.2336 34.6861 77.3511 34.1204 77.5862 33.6208C77.8214 33.1065 78.1593 32.673 78.6002 32.3203C79.041 31.9677 79.57 31.6958 80.1871 31.5048C80.819 31.3138 81.517 31.2182 82.2811 31.2182C83.5301 31.2182 84.7424 31.4607 85.9179 31.9456L84.5734 34.5465ZM95.7879 34.5465C95.0532 34.1645 94.3332 33.9734 93.6278 33.9734C93.2605 33.9734 92.9592 34.0469 92.7241 34.1938C92.5037 34.3408 92.3935 34.5392 92.3935 34.789C92.3935 34.9212 92.4082 35.0314 92.4376 35.1196C92.4817 35.1931 92.5625 35.2665 92.68 35.34C92.8123 35.4135 92.996 35.4796 93.2311 35.5384C93.4809 35.5972 93.8042 35.6706 94.2009 35.7588C95.303 35.9792 96.1259 36.376 96.6696 36.949C97.2133 37.5074 97.4851 38.2274 97.4851 39.1091C97.4851 39.7704 97.3529 40.3655 97.0884 40.8945C96.8239 41.4235 96.4565 41.8716 95.9863 42.239C95.5161 42.5917 94.9503 42.8635 94.2891 43.0545C93.6278 43.2603 92.9005 43.3631 92.107 43.3631C90.5788 43.3631 89.0726 42.9296 87.5885 42.0627L89.0432 39.2414C90.16 40.0055 91.218 40.3875 92.2172 40.3875C92.5845 40.3875 92.8858 40.3067 93.1209 40.1451C93.356 39.9834 93.4735 39.7777 93.4735 39.5279C93.4735 39.381 93.4515 39.2634 93.4074 39.1752C93.378 39.0724 93.3046 38.9842 93.187 38.9107C93.0694 38.8226 92.8931 38.7491 92.658 38.6903C92.4376 38.6168 92.1437 38.5434 91.7763 38.4699C90.542 38.2201 89.6751 37.8527 89.1754 37.3678C88.6905 36.8682 88.4481 36.1849 88.4481 35.318C88.4481 34.6861 88.5656 34.1204 88.8007 33.6208C89.0358 33.1065 89.3738 32.673 89.8146 32.3203C90.2555 31.9677 90.7845 31.6958 91.4016 31.5048C92.0335 31.3138 92.7315 31.2182 93.4956 31.2182C94.7446 31.2182 95.9569 31.4607 97.1324 31.9456L95.7879 34.5465ZM107.774 35.6486C107.642 35.0902 107.37 34.642 106.958 34.3041C106.547 33.9661 106.047 33.7971 105.459 33.7971C104.842 33.7971 104.335 33.9587 103.939 34.282C103.557 34.6053 103.314 35.0608 103.211 35.6486H107.774ZM103.101 37.9629C103.101 39.6822 103.909 40.5418 105.526 40.5418C106.393 40.5418 107.046 40.1891 107.487 39.4838H111.345C110.566 42.07 108.619 43.3631 105.504 43.3631C104.548 43.3631 103.674 43.2235 102.881 42.9443C102.087 42.6504 101.404 42.239 100.831 41.71C100.272 41.181 99.8389 40.5492 99.5303 39.8144C99.2217 39.0797 99.0674 38.2568 99.0674 37.3458C99.0674 36.4053 99.2144 35.5604 99.5083 34.811C99.8022 34.0469 100.221 33.4004 100.765 32.8714C101.308 32.3424 101.962 31.9383 102.726 31.6591C103.505 31.3652 104.379 31.2182 105.349 31.2182C106.304 31.2182 107.164 31.3652 107.928 31.6591C108.692 31.9383 109.339 32.3497 109.868 32.8934C110.397 33.4371 110.801 34.1057 111.08 34.8992C111.359 35.678 111.499 36.5596 111.499 37.5442V37.9629H103.101ZM118.382 34.9653V42.9443H114.393V34.9653H113.07V31.637H114.393V28.2426H118.382V31.637H120.653V34.9653H118.382Z" fill="white"/>
<path d="M126.692 24.6499V35.7147L130.88 31.637H136.346L130.682 36.8609L136.677 42.9443H131.078L126.692 38.3377V42.9443H122.703V24.6499H126.692ZM145.67 35.6486C145.537 35.0902 145.266 34.642 144.854 34.3041C144.443 33.9661 143.943 33.7971 143.355 33.7971C142.738 33.7971 142.231 33.9587 141.834 34.282C141.452 34.6053 141.21 35.0608 141.107 35.6486H145.67ZM140.997 37.9629C140.997 39.6822 141.805 40.5418 143.421 40.5418C144.288 40.5418 144.942 40.1891 145.383 39.4838H149.24C148.462 42.07 146.515 43.3631 143.399 43.3631C142.444 43.3631 141.57 43.2235 140.776 42.9443C139.983 42.6504 139.3 42.239 138.727 41.71C138.168 41.181 137.735 40.5492 137.426 39.8144C137.118 39.0797 136.963 38.2568 136.963 37.3458C136.963 36.4053 137.11 35.5604 137.404 34.811C137.698 34.0469 138.117 33.4004 138.66 32.8714C139.204 32.3424 139.858 31.9383 140.622 31.6591C141.401 31.3652 142.275 31.2182 143.245 31.2182C144.2 31.2182 145.06 31.3652 145.824 31.6591C146.588 31.9383 147.235 32.3497 147.764 32.8934C148.293 33.4371 148.697 34.1057 148.976 34.8992C149.255 35.678 149.395 36.5596 149.395 37.5442V37.9629H140.997ZM155.172 41.4014L149.706 31.637H154.335L157.354 37.434L160.286 31.637H164.87L155.789 48.587H151.315L155.172 41.4014Z" fill="#F9C204"/>
<path d="M126.659 24.6508V35.7157L130.847 31.638H136.313L130.648 36.8618L136.644 42.9453H131.045L126.659 38.3386V42.9453H122.669V24.6508H126.659Z" fill="white"/>
<g clip-path="url(#clip0_628_5203)">
<path d="M127.252 21.447C127.691 21.8874 128.022 22.4238 128.217 23.0124C128.412 23.601 128.466 24.2252 128.374 24.834C128.283 25.4428 128.048 26.019 127.689 26.5154C127.33 27.0119 126.858 27.4145 126.31 27.6905L126.343 31.6698C126.343 31.7212 126.334 31.772 126.314 31.8193C126.295 31.8666 126.266 31.9094 126.23 31.9454L124.859 33.3168C124.786 33.3896 124.687 33.43 124.583 33.4291C124.48 33.4283 124.38 33.3863 124.306 33.3124L122.912 31.9187C122.838 31.8448 122.796 31.745 122.795 31.6413C122.795 31.5376 122.835 31.4384 122.908 31.3657L123.456 30.8171L122.899 30.2596C122.825 30.1857 122.783 30.0859 122.782 29.9822C122.781 29.8785 122.822 29.7794 122.894 29.7066L123.443 29.1581L122.886 28.6006C122.849 28.564 122.82 28.5207 122.8 28.4731C122.78 28.4255 122.769 28.3745 122.769 28.3232L122.764 27.662C122.258 27.4013 121.813 27.035 121.46 26.5884C121.107 26.1418 120.853 25.6255 120.717 25.075C120.58 24.5245 120.564 23.9529 120.67 23.3995C120.776 22.8462 121 22.3242 121.329 21.8696C121.657 21.415 122.081 21.0386 122.572 20.7662C123.062 20.4938 123.608 20.332 124.171 20.2918C124.734 20.2517 125.301 20.3341 125.833 20.5336C126.364 20.733 126.849 21.0446 127.252 21.447ZM123.949 23.3559C124.059 23.4661 124.199 23.5417 124.351 23.5731C124.503 23.6045 124.66 23.5903 124.803 23.5323C124.945 23.4742 125.067 23.375 125.152 23.247C125.236 23.1191 125.281 22.9683 125.28 22.8136C125.279 22.6589 125.232 22.5073 125.145 22.378C125.058 22.2487 124.935 22.1475 124.791 22.0872C124.648 22.0268 124.49 22.0101 124.339 22.039C124.188 22.068 124.049 22.1413 123.94 22.2498C123.795 22.3953 123.714 22.5936 123.716 22.801C123.717 23.0084 123.801 23.208 123.949 23.3559Z" fill="white"/>
</g>
<g clip-path="url(#clip1_628_5203)">
<path d="M127.522 32.7871C127.99 33.2547 128.342 33.8243 128.55 34.4495C128.757 35.0746 128.815 35.7375 128.717 36.384C128.619 37.0306 128.369 37.6424 127.988 38.1697C127.606 38.6969 127.103 39.1245 126.521 39.4176L126.555 43.6437C126.555 43.6982 126.545 43.7521 126.525 43.8023C126.504 43.8526 126.474 43.8981 126.435 43.9363L124.976 45.3927C124.899 45.47 124.793 45.5129 124.683 45.512C124.572 45.5111 124.466 45.4665 124.387 45.388L122.904 43.9079C122.826 43.8294 122.781 43.7234 122.78 43.6133C122.779 43.5032 122.822 43.3979 122.9 43.3206L123.483 42.7381L122.89 42.146C122.812 42.0675 122.767 41.9615 122.766 41.8514C122.765 41.7413 122.808 41.636 122.885 41.5587L123.469 40.9762L122.876 40.3841C122.837 40.3453 122.806 40.2992 122.785 40.2487C122.763 40.1981 122.752 40.144 122.752 40.0895L122.746 39.3873C122.208 39.1104 121.735 38.7215 121.359 38.2472C120.983 37.7729 120.713 37.2245 120.568 36.6399C120.423 36.0553 120.406 35.4482 120.518 34.8606C120.631 34.2729 120.87 33.7186 121.219 33.2359C121.569 32.7531 122.02 32.3533 122.542 32.064C123.064 31.7747 123.645 31.6029 124.244 31.5602C124.843 31.5176 125.446 31.6051 126.012 31.8169C126.578 32.0287 127.093 32.3597 127.522 32.7871ZM124.008 34.8142C124.125 34.9313 124.274 35.0116 124.436 35.045C124.598 35.0783 124.765 35.0632 124.916 35.0016C125.068 34.9399 125.197 34.8345 125.287 34.6987C125.378 34.5628 125.425 34.4026 125.424 34.2383C125.423 34.0741 125.372 33.9131 125.28 33.7758C125.187 33.6384 125.056 33.5309 124.904 33.4669C124.751 33.4028 124.584 33.385 124.423 33.4157C124.262 33.4465 124.114 33.5244 123.998 33.6396C123.844 33.7941 123.758 34.0047 123.759 34.225C123.761 34.4452 123.851 34.6572 124.008 34.8142Z" fill="white"/>
</g>
<defs>
<clipPath id="clip0_628_5203">
<rect width="14.9262" height="8.89117" fill="white" transform="translate(117.062 18.6621)"/>
</clipPath>
<clipPath id="clip1_628_5203">
<rect width="3.77011" height="6.40918" fill="white" transform="translate(122.748 39.2715)"/>
</clipPath>
</defs>
</svg>
